<?xml version="1.0" encoding="UTF-8"?>
<svg width="171px" height="270px" viewBox="0 0 171 270" version="1.1" xmlns="http://www.w3.org/2000/svg" xmlns:xlink="http://www.w3.org/1999/xlink">
    <!-- Generator: sketchtool 48.2 (47327) - http://www.bohemiancoding.com/sketch -->
    <title>D7CF2C8F-1893-4F50-95CE-2B9DD1C3C45E</title>
    <desc>Created with sketchtool.</desc>
    <defs></defs>
    <g id="Cas-1-Copy-117" stroke="none" stroke-width="1" fill="none" fill-rule="evenodd" transform="translate(-640.000000, -97.000000)">
        <path d="M715.79174,200.326091 C712.17015,200.326091 705.973603,200.278689 705.176734,200.012048 C704.552322,199.792811 703.773293,199.52617 700.413361,189.062019 L671.672562,99.6841793 C671.01247,97.6695635 670.34643,97.0592534 670.168027,97 C670.037197,97.0592534 669.371158,97.6695635 668.711065,99.678254 L640,187.675489 C645.346157,188.884258 650.799357,190.638159 654.837222,192.000988 L664.15583,163.298637 C664.185564,163.197906 667.182742,154.007703 668.181801,152.662651 L668.633757,152.046415 L671.601201,152.046415 L672.053157,152.662651 C673.052216,154.007703 676.01966,163.215682 676.055341,163.304563 L691.26721,210.618408 C692.658757,214.949832 693.693497,215.714201 698.254679,215.714201 L746.566339,215.714201 C746.65554,215.714201 756.271487,215.714201 757.865225,216.259332 L758.584786,216.502271 L759.50059,219.34051 L759.066475,219.96267 C758.103096,221.337349 750.324705,227.037527 750.24145,227.096781 L711.593312,255.396208 C707.5495,258.347027 706.829939,259.028442 708.108498,262.99842 L723.350101,310.436698 C723.391728,310.537428 726.341332,319.739483 726.311598,321.416354 L723.920992,323.928698 L723.201431,323.709461 C721.601747,323.223583 713.781728,317.582659 713.70442,317.523405 L673.736096,288.643294 C671.963955,287.35157 670.8638,286.836066 669.942049,286.836066 C668.841894,286.836066 670.420487,305.573347 670.560514,305.696425 C670.700541,305.819503 671.268181,305.809007 679.528262,311.775825 L754.19606,365.737902 C755.825479,366.905195 756.658028,367 756.878059,367 C756.996995,366.994075 757.395429,366.294884 756.640188,363.942524 L728.369185,276.034169 C727.25119,272.567845 725.3839,266.624728 725.40174,265.78333 C725.413634,265.113767 725.425528,264.29607 734.262446,257.825597 L808.936191,203.164329 C810.642918,201.914083 811.011618,201.07861 810.999725,200.883073 C810.91647,200.782342 810.131495,200.326091 808.020387,200.326091 L715.79174,200.326091 Z" id="Path" fill="#EEBB01" transform="translate(725.500000, 232.000000) scale(-1, 1) translate(-725.500000, -232.000000) "></path>
    </g>
</svg>